<?xml version="1.0" encoding="utf-8"?>
<!-- Generator: Adobe Illustrator 22.1.0, SVG Export Plug-In . SVG Version: 6.00 Build 0)  -->
<svg version="1.1" id="Project" xmlns="http://www.w3.org/2000/svg" xmlns:xlink="http://www.w3.org/1999/xlink" x="0px" y="0px"
	 viewBox="0 0 760 360" style="enable-background:new 0 0 760 360;" xml:space="preserve">
<style type="text/css">
	.st0{opacity:0.15;}
</style>
<g id="Logotype" class="st0">
	<path id="T" d="M93.5,147.6h-0.6c-3,0.2-8.1,0.3-15.1,0.3c-7.1,0-12.2-0.1-15.2-0.3H62v0.6c0.3,4.1,0.4,8,0.4,11.5
		c0,3-0.1,5.5-0.2,7.4v0.5h2.2v-0.5c0.3-4.6,0.6-8.1,1.1-10.3c0.4-2.1,1.1-3.7,2.1-4.7c1-0.9,2.5-1.4,4.6-1.4h2.4v50.7
		c0,2.4-0.1,4.2-0.4,5.4c-0.2,1-0.7,1.7-1.3,2.1c-0.7,0.4-1.8,0.6-3.3,0.7h-0.5v2.8l0.6-0.1c1.7-0.2,4.4-0.3,7.9-0.3
		c3.4,0,6,0.1,7.9,0.3l0.5,0.1v-2.8h-0.5c-1.5-0.1-2.6-0.3-3.3-0.7c-0.6-0.4-1.1-1.1-1.3-2.1c-0.3-1.1-0.4-2.9-0.4-5.4v-50.7h2.4
		c2.1,0,3.6,0.5,4.6,1.4c1,1,1.7,2.5,2.1,4.7s0.8,5.7,1.1,10.3v0.5h2.2v-0.5c-0.1-1.9-0.2-4.4-0.2-7.4c0-3.4,0.1-7.2,0.4-11.5
		L93.5,147.6z"/>
	<path id="H" d="M129.6,152.9c0.2-0.9,0.5-1.5,1-1.8s1.4-0.5,2.6-0.6h0.5v-2.8l-0.6,0.1c-1.5,0.2-3.8,0.3-6.9,0.3
		c-2.9,0-5.1-0.1-6.8-0.3l-0.6-0.1v2.8h0.5c1.2,0.1,2.1,0.3,2.6,0.6s0.8,0.9,1,1.8c0.2,1,0.3,2.6,0.3,4.8v20.7h-16.6v-20.7
		c0-2.2,0.1-3.8,0.3-4.8c0.2-0.9,0.5-1.5,1-1.8s1.4-0.5,2.6-0.6h0.5v-2.8l-0.6,0.1c-1.6,0.2-3.9,0.3-6.8,0.3c-3.1,0-5.4-0.1-6.8-0.3
		l-0.6-0.1v2.8h0.5c1.2,0.1,2.1,0.3,2.6,0.6s0.8,0.9,1,1.8c0.2,1,0.3,2.6,0.3,4.8v44.6c0,2.2-0.1,3.8-0.3,4.8
		c-0.2,0.9-0.5,1.5-1,1.8s-1.4,0.5-2.6,0.6h-0.5v2.8l0.6-0.1c1.5-0.2,3.8-0.3,6.9-0.3c2.9,0,5.2,0.1,6.8,0.3l0.6,0.1v-2.8h-0.5
		c-1.2-0.1-2.1-0.3-2.6-0.6s-0.8-0.9-1-1.8c-0.2-1-0.3-2.6-0.3-4.8v-21.1h16.6v21.1c0,2.2-0.1,3.8-0.3,4.8c-0.2,0.9-0.5,1.5-1,1.8
		s-1.4,0.5-2.6,0.6h-0.5v2.8l0.6-0.1c1.7-0.2,4-0.3,6.8-0.3c3.1,0,5.4,0.1,6.8,0.3l0.6,0.1v-2.8h-0.5c-1.2-0.1-2.1-0.3-2.6-0.6
		s-0.8-0.9-1-1.8c-0.2-1-0.3-2.6-0.3-4.8v-44.6C129.3,155.5,129.4,153.8,129.6,152.9z"/>
	<path id="E" d="M166.2,211.8c-0.2-4.2-0.4-8.1-0.4-11.5c0-2.7,0.1-4.9,0.2-6.5v-0.5h-2.2v0.5c-0.3,4.2-0.7,7.4-1.2,9.6
		c-0.5,2.1-1.3,3.6-2.4,4.5c-1.1,0.9-2.7,1.4-4.8,1.4h-4c-1.2,0-2.1-0.2-2.6-0.5s-0.8-0.9-1-1.7c-0.2-1-0.3-2.6-0.3-4.8v-21.1h3.1
		c1.3,0,2.3,0.5,3,1.7c0.8,1.2,1.2,3,1.4,5.4c0.2,2.5,0.3,3.9,0.3,4.4v0.5h2.2v-0.5c-0.2-5.4-0.3-9.7-0.3-12.8v-4.3
		c0-2.7,0.1-5.5,0.2-8.5v-0.5h-2.2v0.5c-0.1,0.6-0.1,1.8-0.3,3.7c-0.1,1.8-0.5,3.6-1.1,5.4c-0.5,1.6-1.6,2.4-3.1,2.4h-3.1v-20.7
		c0-2.2,0.1-3.8,0.3-4.8c0.2-0.9,0.5-1.4,1-1.7s1.4-0.5,2.6-0.5h4.5c1.8,0,3.1,0.4,3.9,1.2c0.9,0.8,1.5,2.1,1.9,3.9
		c0.4,1.9,0.7,4.8,1,8.6v0.5h2.2v-0.5c-0.1-1.4-0.2-3.2-0.2-5.5c0-3.1,0.1-6.7,0.4-10.6v-0.6h-0.6c-2.2,0.2-6,0.3-11.2,0.3
		c-6.9,0-12.1-0.1-15.6-0.3h-0.5v2.8h0.5c1.2,0.1,2.1,0.3,2.6,0.6s0.8,0.9,1,1.8c0.2,1,0.3,2.6,0.3,4.8v44.6c0,2.2-0.1,3.8-0.3,4.8
		c-0.2,0.9-0.5,1.5-1,1.8s-1.4,0.5-2.6,0.6h-0.5v2.8h0.5c3.5-0.2,8.8-0.3,15.6-0.3c5.8,0,9.9,0.1,12.3,0.3h0.6L166.2,211.8z"/>
	<path id="E_1_" d="M212.5,211.8c-0.2-4.2-0.4-8.1-0.4-11.5c0-2.7,0.1-4.9,0.2-6.5v-0.5h-2.2v0.5c-0.3,4.2-0.7,7.4-1.2,9.6
		c-0.5,2.1-1.3,3.6-2.4,4.5c-1.1,0.9-2.7,1.4-4.8,1.4h-4c-1.2,0-2.1-0.2-2.6-0.5s-0.8-0.9-1-1.7c-0.2-1-0.3-2.6-0.3-4.8v-21.1h3.1
		c1.3,0,2.3,0.5,3,1.7c0.8,1.2,1.2,3,1.4,5.4c0.2,2.5,0.3,3.9,0.3,4.4v0.5h2.2v-0.5c-0.2-5.4-0.3-9.7-0.3-12.8v-4.3
		c0-2.7,0.1-5.5,0.2-8.5v-0.5h-2.2v0.5c-0.1,0.6-0.1,1.8-0.3,3.7c-0.1,1.8-0.5,3.6-1.1,5.4c-0.5,1.6-1.6,2.4-3.1,2.4h-3.1v-20.7
		c0-2.2,0.1-3.8,0.3-4.8c0.2-0.9,0.5-1.4,1-1.7s1.4-0.5,2.6-0.5h4.5c1.8,0,3.1,0.4,3.9,1.2c0.9,0.8,1.5,2.1,1.9,3.9
		c0.4,1.9,0.7,4.8,1,8.6v0.5h2.2v-0.5c-0.1-1.4-0.2-3.2-0.2-5.5c0-3.1,0.1-6.7,0.4-10.6v-0.6h-0.6c-2.2,0.2-6,0.3-11.2,0.3
		c-6.9,0-12.1-0.1-15.6-0.3h-0.5v2.8h0.5c1.2,0.1,2.1,0.3,2.6,0.6s0.8,0.9,1,1.8c0.2,1,0.3,2.6,0.3,4.8v44.6c0,2.2-0.1,3.8-0.3,4.8
		c-0.2,0.9-0.5,1.5-1,1.8s-1.4,0.5-2.6,0.6h-0.5v2.8h0.5c3.5-0.2,8.8-0.3,15.6-0.3c5.8,0,9.9,0.1,12.3,0.3h0.6L212.5,211.8z"/>
	<path id="S" d="M240.4,187.9c-0.8-2.3-1.9-4.4-3.2-6.2s-3.1-3.8-5.4-6.2c-0.5-0.6-1.6-1.6-3.2-3.2c-1.5-1.6-2.9-3.3-4.1-5.3
		c-1.1-1.9-1.7-4.5-1.7-7.6c0-2,0.3-3.8,0.8-5.3s1.3-2.7,2.2-3.5s1.9-1.2,3.1-1.2c1.8,0,3.2,0.7,4.4,2.2c1.2,1.6,2.2,3.6,2.8,6.2
		c0.6,2.6,1,5.4,1.2,8.4v0.5h2.2v-0.5c0-8.7,0.1-14.9,0.3-18.3v-0.5h-2.2v0.5c-0.1,1.3-0.2,2.3-0.4,2.9c-0.1,0.5-0.3,0.6-0.3,0.6
		c-0.1,0-0.5-0.1-1.5-1.1c-0.6-0.7-1.2-1.3-1.8-1.8s-1.3-0.9-2.1-1.2c-0.9-0.3-1.9-0.5-3-0.5c-1.9,0-3.8,0.6-5.4,1.8
		c-1.6,1.2-2.9,3-3.9,5.5c-0.9,2.4-1.4,5.4-1.4,8.8c0,3.2,0.4,6.1,1.3,8.5c0.8,2.4,1.9,4.5,3.3,6.2c1.3,1.7,3.1,3.7,5.2,5.8
		c1.9,1.9,3.5,3.6,4.6,5.1s2,3.1,2.7,4.9c0.7,1.8,1,3.8,1,6c0,2.6-0.3,4.8-1,6.6c-0.6,1.7-1.4,3-2.4,3.8s-2,1.2-3.1,1.2
		c-3,0-5.2-1.7-6.7-5.3c-1.5-3.7-2.4-8.6-2.7-14.6v-0.5h-2.2v0.5c0,11-0.1,18.3-0.2,21.6v0.5h2.2v-0.5c0.1-1.3,0.2-2.3,0.4-2.9
		c0.1-0.5,0.3-0.6,0.3-0.6c0.1,0,0.5,0.1,1.5,1.1c1,1.1,2.1,1.9,3.3,2.5s2.7,1,4.5,1c2.2,0,4.3-0.7,6.1-2s3.2-3.4,4.3-6
		c1-2.6,1.6-5.8,1.6-9.6C241.6,193,241.2,190.2,240.4,187.9z"/>
	<path id="P" d="M272.8,156.5c-1-2.7-2.5-4.9-4.6-6.4c-2-1.5-4.5-2.3-7.5-2.3c-0.6,0-1.8,0-3.5,0.1c-5.1,0.2-9,0.1-11.2-0.2
		l-0.6-0.1v2.8h0.5c1.2,0.1,2.1,0.3,2.6,0.6s0.8,0.9,1,1.8c0.2,1,0.3,2.6,0.3,4.8v44.6c0,2.2-0.1,3.8-0.3,4.8
		c-0.2,0.9-0.5,1.5-1,1.8s-1.4,0.5-2.6,0.6h-0.5v2.8l0.6-0.1c1.5-0.2,3.8-0.3,6.9-0.3c3.4,0,6.1,0.1,7.9,0.3l0.5,0.1v-2.8h-0.5
		c-1.5-0.1-2.6-0.3-3.3-0.6c-0.6-0.3-1-0.9-1.3-1.8c-0.3-1-0.4-2.6-0.4-4.8v-15.7h3.7c3.6,0,6.5-1.1,8.7-3.2
		c2.2-2.1,3.7-4.7,4.6-7.8s1.3-6.3,1.3-9.6C274.3,162.4,273.8,159.2,272.8,156.5z M267.9,166.9c0,5.2-0.7,9.4-2,12.5
		c-1.3,3-3.5,4.4-6.8,4.4H256v-26.1c0-2.1,0.1-3.7,0.3-4.7c0.2-1,0.5-1.6,1-2s1.2-0.5,2.2-0.5c2,0,3.7,0.6,4.9,1.7
		c1.2,1.2,2.1,3,2.7,5.4C267.6,160,267.9,163.1,267.9,166.9z"/>
	<path id="O" d="M310.9,161.8c-1.4-5-3.5-8.8-6.1-11.4l0,0c-2.7-2.7-5.8-4-9.4-4c-3.5,0-6.6,1.5-9.3,4.4c-2.6,2.9-4.7,6.9-6.2,12.1
		c-1.5,5.1-2.2,11.1-2.2,17.7c0,6.8,0.7,12.7,2.1,17.7s3.5,8.8,6.1,11.4c2.7,2.7,5.8,4,9.4,4c3.5,0,6.6-1.5,9.3-4.4
		c2.6-2.9,4.7-6.9,6.2-12.1c1.5-5.1,2.2-11.1,2.2-17.7C313,172.7,312.3,166.8,310.9,161.8z M295.6,211c-2,0-3.9-1.2-5.6-3.7
		c-1.8-2.5-3.2-6.1-4.2-10.8s-1.6-10.2-1.6-16.4c0-6.1,0.5-11.6,1.4-16.4c0.9-4.7,2.3-8.4,4-11c1.7-2.5,3.6-3.8,5.7-3.8
		c2,0,3.9,1.2,5.6,3.7c1.8,2.5,3.2,6.1,4.2,10.8s1.6,10.2,1.6,16.4c0,6.1-0.5,11.6-1.4,16.4c-0.9,4.7-2.3,8.4-4,11
		C299.5,209.8,297.7,211,295.6,211z"/>
	<path id="R" d="M349.7,205.4l-0.3,0.7c-0.6,1.2-1.1,2.1-1.4,2.6c-0.3,0.4-0.6,0.6-1.1,0.6c-0.2,0-0.5-0.1-0.8-0.5s-0.6-1.2-0.8-2.1
		c-0.2-1-0.5-2.5-0.7-4.3l-1.3-9.2c-0.4-2.6-0.8-4.7-1.4-6.3s-1.4-2.9-2.4-3.9c-0.8-0.8-1.9-1.4-3.2-1.8c1.9-0.7,3.5-1.9,4.8-3.5
		c1.6-1.9,2.8-4.2,3.4-6.6c0.7-2.4,1-4.9,1-7.2c0-3-0.5-5.8-1.5-8.2s-2.6-4.4-4.6-5.8c-2-1.4-4.5-2.1-7.4-2.1c-0.6,0-1.8,0-3.5,0.1
		c-5.1,0.2-9,0.1-11.2-0.2l-0.6-0.1v2.8h0.5c1.2,0.1,2.1,0.3,2.6,0.6s0.8,0.9,1,1.8c0.2,1,0.3,2.6,0.3,4.8v44.6
		c0,2.2-0.1,3.8-0.3,4.8c-0.2,0.9-0.5,1.5-1,1.8s-1.4,0.5-2.6,0.6h-0.5v2.8l0.6-0.1c1.5-0.2,3.8-0.3,6.9-0.3c2.9,0,5.2,0.1,6.8,0.3
		l0.6,0.1v-2.8h-0.5c-1.2-0.1-2.1-0.3-2.6-0.6s-0.8-0.9-1-1.8c-0.2-1-0.3-2.6-0.3-4.8V182h4.6c1.2,0,2.1,0.4,2.8,1.3
		c0.7,0.9,1.3,2.2,1.6,3.9c0.4,1.7,0.8,4.1,1.2,7.2l1.2,9c0.5,3.7,1.2,6.3,2.2,7.8c1,1.6,2.4,2.4,4.1,2.4c1.5,0,2.7-0.5,3.6-1.5
		s1.7-2.4,2.6-4.5l0.1-0.3L349.7,205.4z M339.1,164.9c0,3-0.3,5.6-0.8,7.7c-0.5,2.1-1.4,3.7-2.7,4.9l0,0c-1.3,1.2-3.1,1.8-5.4,1.8
		h-3.1v-21.6c0-2.1,0.1-3.7,0.3-4.7c0.2-1,0.5-1.6,1-2s1.2-0.5,2.2-0.5c3,0,5.1,1.2,6.4,3.5C338.4,156.4,339.1,160.1,339.1,164.9z"
		/>
	<path id="T_1_" d="M382.1,147.6h-0.6c-3,0.2-8.1,0.3-15.1,0.3c-7.1,0-12.2-0.1-15.2-0.3h-0.6v0.6c0.3,4.1,0.4,8,0.4,11.5
		c0,3-0.1,5.5-0.2,7.4v0.5h2.2v-0.5c0.3-4.6,0.6-8.1,1.1-10.3c0.4-2.1,1.1-3.7,2.1-4.7c1-0.9,2.5-1.4,4.6-1.4h2.4v50.7
		c0,2.4-0.1,4.2-0.4,5.4c-0.2,1-0.7,1.7-1.3,2.1c-0.7,0.4-1.8,0.6-3.3,0.7h-0.5v2.8l0.6-0.1c1.7-0.2,4.4-0.3,7.9-0.3
		c3.4,0,6,0.1,7.9,0.3l0.5,0.1v-2.8h-0.5c-1.5-0.1-2.6-0.3-3.3-0.7c-0.6-0.4-1.1-1.1-1.3-2.1c-0.3-1.1-0.4-2.9-0.4-5.4v-50.7h2.4
		c2.1,0,3.6,0.5,4.6,1.4c1,1,1.7,2.5,2.1,4.7s0.8,5.7,1.1,10.3v0.5h2.2v-0.5c-0.1-1.9-0.2-4.4-0.2-7.4c0-3.4,0.1-7.2,0.4-11.5
		L382.1,147.6z"/>
	<path id="S_1_" d="M408.9,187.9c-0.8-2.3-1.9-4.4-3.2-6.2c-1.3-1.8-3.1-3.8-5.4-6.2c-0.5-0.6-1.6-1.6-3.2-3.2
		c-1.5-1.6-2.9-3.3-4.1-5.3c-1.1-1.9-1.7-4.5-1.7-7.6c0-2,0.3-3.8,0.8-5.3s1.3-2.7,2.2-3.5c0.9-0.8,1.9-1.2,3.1-1.2
		c1.8,0,3.2,0.7,4.4,2.2c1.2,1.6,2.2,3.6,2.8,6.2c0.6,2.6,1,5.4,1.2,8.4v0.5h2.2v-0.5c0-8.7,0.1-14.9,0.3-18.3v-0.5h-2.2v0.5
		c-0.1,1.3-0.2,2.3-0.4,2.9c-0.1,0.5-0.3,0.6-0.3,0.6c-0.1,0-0.5-0.1-1.5-1.1c-0.6-0.7-1.2-1.3-1.8-1.8c-0.6-0.5-1.3-0.9-2.1-1.2
		c-0.9-0.3-1.9-0.5-3-0.5c-1.9,0-3.8,0.6-5.4,1.8s-2.9,3-3.9,5.5c-0.9,2.4-1.4,5.4-1.4,8.8c0,3.2,0.4,6.1,1.3,8.5
		c0.8,2.4,2,4.5,3.3,6.2s3.1,3.7,5.2,5.8c1.9,1.9,3.5,3.6,4.6,5.1s2,3.1,2.7,4.9c0.7,1.8,1,3.8,1,6c0,2.6-0.3,4.8-1,6.6
		c-0.6,1.7-1.4,3-2.4,3.8s-2,1.2-3.1,1.2c-3,0-5.2-1.7-6.7-5.3c-1.5-3.7-2.4-8.6-2.7-14.6v-0.5h-2.2v0.5c0,11-0.1,18.3-0.2,21.6v0.5
		h2.2v-0.5c0.1-1.3,0.2-2.3,0.4-2.9c0.1-0.5,0.3-0.6,0.3-0.6c0.1,0,0.5,0.1,1.5,1.1c1,1.1,2.1,1.9,3.3,2.5c1.2,0.6,2.7,1,4.5,1
		c2.2,0,4.3-0.7,6.1-2c1.8-1.3,3.2-3.4,4.3-6c1-2.6,1.6-5.8,1.6-9.6C410.1,193,409.7,190.2,408.9,187.9z"/>
	<path id="O_1_" d="M461.2,161.8c-1.4-5-3.5-8.8-6.1-11.4c-2.7-2.7-5.8-4-9.4-4c-3.5,0-6.6,1.5-9.3,4.4c-2.6,2.9-4.7,6.9-6.2,12.1
		c-1.5,5.1-2.2,11.1-2.2,17.7c0,6.8,0.7,12.7,2.1,17.7s3.5,8.8,6.1,11.4c2.7,2.7,5.8,4,9.4,4c3.5,0,6.6-1.5,9.3-4.4
		c2.6-2.9,4.7-6.9,6.2-12.1c1.5-5.1,2.2-11.1,2.2-17.7C463.4,172.7,462.7,166.8,461.2,161.8z M445.9,211c-2,0-3.9-1.2-5.6-3.7
		c-1.8-2.5-3.2-6.1-4.2-10.8s-1.6-10.2-1.6-16.4c0-6.1,0.5-11.6,1.4-16.4c0.9-4.7,2.3-8.4,4-11c1.7-2.5,3.6-3.8,5.7-3.8
		c2,0,3.9,1.2,5.6,3.7c1.8,2.5,3.2,6.1,4.2,10.8s1.6,10.2,1.6,16.4c0,6.1-0.5,11.6-1.4,16.4c-0.9,4.7-2.3,8.4-4,11
		S448.1,211,445.9,211z"/>
	<path id="B" d="M494.4,183.6c-1.6-2.8-4.2-4.7-7.8-5.7c2.5-1.5,4.3-3.5,5.6-6.1c1.3-2.8,2-6,2-9.5c0-2.9-0.4-5.4-1.3-7.6
		c-0.9-2.2-2.2-4-4-5.2s-4-1.9-6.5-1.9c-0.6,0-1.8,0-3.5,0.1c-5.1,0.2-9,0.1-11.2-0.2l-0.6-0.1v2.8h0.5c1.2,0.1,2.1,0.3,2.6,0.6
		s0.8,0.9,1,1.8c0.2,1,0.3,2.6,0.3,4.8V202c0,2.2-0.1,3.8-0.3,4.8c-0.2,0.9-0.5,1.5-1,1.8s-1.4,0.5-2.6,0.6h-0.5v2.8l0.6-0.1
		c1.5-0.2,3.7-0.3,6.6-0.3c1.8,0,3.7,0,5.5,0.1s3.1,0.1,3.8,0.1c2.8,0,5.2-0.8,7.2-2.3s3.6-3.7,4.7-6.4s1.6-5.8,1.6-9.2
		C497,190.2,496.2,186.6,494.4,183.6z M490.6,194c0,10.3-3.1,15.3-9.6,15.3c-1.1,0-1.8-0.2-2.3-0.5c-0.4-0.3-0.8-0.9-1-1.8l0,0
		c-0.2-1-0.3-2.6-0.3-4.7V180h4c3.2,0,5.4,1.1,6.9,3.5C489.9,185.9,490.6,189.4,490.6,194z M477.5,177.5v-19.8
		c0-2.1,0.1-3.7,0.3-4.7c0.2-1,0.5-1.6,1-2s1.2-0.5,2.2-0.5c2.5,0,4.2,1,5.3,3.1c1.1,2.1,1.7,5.4,1.7,9.8c0,4.4-0.6,7.9-1.7,10.5
		c-1.1,2.5-3,3.7-5.7,3.7h-3.1V177.5z"/>
	<path id="S_2_" d="M524.8,187.9c-0.8-2.3-1.9-4.4-3.2-6.2s-3.1-3.8-5.4-6.2c-0.5-0.6-1.6-1.6-3.2-3.2c-1.5-1.6-2.9-3.3-4.1-5.3
		c-1.1-1.9-1.7-4.5-1.7-7.6c0-2,0.3-3.8,0.8-5.3s1.3-2.7,2.2-3.5c0.9-0.8,1.9-1.2,3.1-1.2c1.8,0,3.2,0.7,4.4,2.2
		c1.2,1.6,2.2,3.6,2.8,6.2c0.6,2.6,1,5.4,1.2,8.4v0.5h2.2v-0.5c0-8.7,0.1-14.9,0.3-18.3v-0.5H522v0.5c-0.1,1.3-0.2,2.3-0.4,2.9
		c-0.1,0.5-0.3,0.6-0.3,0.6c-0.1,0-0.5-0.1-1.5-1.1c-0.6-0.7-1.2-1.3-1.8-1.8s-1.3-0.9-2.1-1.2c-0.9-0.3-1.9-0.5-3-0.5
		c-1.9,0-3.8,0.6-5.4,1.8s-2.9,3-3.9,5.5c-0.9,2.4-1.4,5.4-1.4,8.8c0,3.2,0.4,6.1,1.3,8.5c0.8,2.4,2,4.5,3.3,6.2s3.1,3.7,5.2,5.8
		c1.9,1.9,3.5,3.6,4.6,5.1s2,3.1,2.7,4.9c0.7,1.8,1,3.8,1,6c0,2.6-0.3,4.8-1,6.6c-0.6,1.7-1.4,3-2.4,3.8s-2,1.2-3.1,1.2
		c-3,0-5.2-1.7-6.7-5.3c-1.5-3.7-2.4-8.6-2.7-14.6v-0.5h-2.2v0.5c0,11-0.1,18.3-0.2,21.6v0.5h2.2v-0.5c0.1-1.3,0.2-2.3,0.4-2.9
		c0.1-0.5,0.3-0.6,0.3-0.6c0.1,0,0.5,0.1,1.5,1.1c1,1.1,2.1,1.9,3.3,2.5c1.2,0.6,2.7,1,4.5,1c2.2,0,4.3-0.7,6.1-2s3.2-3.4,4.3-6
		c1-2.6,1.6-5.8,1.6-9.6C526,193,525.6,190.2,524.8,187.9z"/>
	<path id="E_2_" d="M558.9,211.8c-0.2-4.2-0.4-8.1-0.4-11.5c0-2.7,0.1-4.9,0.2-6.5v-0.5h-2.2v0.5c-0.3,4.2-0.7,7.4-1.2,9.6
		c-0.5,2.1-1.3,3.6-2.4,4.5c-1.1,0.9-2.7,1.4-4.8,1.4h-4c-1.2,0-2.1-0.2-2.6-0.5s-0.8-0.9-1-1.7c-0.2-1-0.3-2.6-0.3-4.8v-21.1h3.1
		c1.3,0,2.3,0.5,3,1.7c0.8,1.2,1.2,3,1.4,5.4c0.2,2.5,0.3,3.9,0.3,4.4v0.5h2.2v-0.5c-0.2-5.4-0.3-9.7-0.3-12.8v-4.3
		c0-2.7,0.1-5.5,0.2-8.5v-0.5h-2.2v0.5c-0.1,0.6-0.1,1.8-0.3,3.7c-0.1,1.8-0.5,3.6-1.1,5.4c-0.5,1.6-1.6,2.4-3.1,2.4h-3.1v-20.7
		c0-2.2,0.1-3.8,0.3-4.8c0.2-0.9,0.5-1.4,1-1.7s1.4-0.5,2.6-0.5h4.5c1.8,0,3.1,0.4,3.9,1.2c0.9,0.8,1.5,2.1,1.9,3.9
		c0.4,1.9,0.7,4.8,1,8.6v0.5h2.2v-0.5c-0.1-1.4-0.2-3.2-0.2-5.5c0-3.1,0.1-6.7,0.4-10.6v-0.6h-0.6c-2.2,0.2-6,0.3-11.2,0.3
		c-6.9,0-12.1-0.1-15.6-0.3H530v2.8h0.5c1.2,0.1,2.1,0.3,2.6,0.6s0.8,0.9,1,1.8c0.2,1,0.3,2.6,0.3,4.8v44.6c0,2.2-0.1,3.8-0.3,4.8
		c-0.2,0.9-0.5,1.5-1,1.8s-1.4,0.5-2.6,0.6H530v2.8h0.5c3.5-0.2,8.8-0.3,15.6-0.3c5.8,0,9.9,0.1,12.3,0.3h0.6L558.9,211.8z"/>
	<path id="R_1_" d="M595.7,205.4l-0.3,0.7c-0.6,1.2-1.1,2.1-1.4,2.6c-0.3,0.4-0.6,0.6-1.1,0.6c-0.2,0-0.5-0.1-0.8-0.5
		s-0.6-1.2-0.8-2.1c-0.2-1-0.5-2.5-0.7-4.3l-1.3-9.2c-0.4-2.6-0.8-4.7-1.4-6.3c-0.6-1.6-1.4-2.9-2.4-3.9c-0.8-0.8-1.9-1.4-3.2-1.8
		c1.9-0.7,3.5-1.9,4.8-3.5c1.6-1.9,2.8-4.2,3.4-6.6c0.7-2.4,1-4.9,1-7.2c0-3-0.5-5.8-1.5-8.2s-2.6-4.4-4.6-5.8
		c-2-1.4-4.5-2.1-7.4-2.1c-0.6,0-1.8,0-3.5,0.1c-5,0.2-9,0.1-11.2-0.2l-0.6-0.1v2.8h0.5c1.2,0.1,2.1,0.3,2.6,0.6s0.8,0.9,1,1.8
		c0.2,1,0.3,2.6,0.3,4.8v44.6c0,2.2-0.1,3.8-0.3,4.8c-0.2,0.9-0.5,1.5-1,1.8s-1.4,0.5-2.6,0.6h-0.5v2.8l0.6-0.1
		c1.5-0.2,3.8-0.3,6.9-0.3c2.9,0,5.2,0.1,6.8,0.3l0.6,0.1v-2.8h-0.5c-1.2-0.1-2.1-0.3-2.6-0.6s-0.8-0.9-1-1.8
		c-0.2-1-0.3-2.6-0.3-4.8V182h4.6c1.2,0,2.1,0.4,2.8,1.3c0.7,0.9,1.3,2.2,1.6,3.9c0.4,1.7,0.8,4.1,1.2,7.2l1.2,9
		c0.5,3.7,1.2,6.3,2.2,7.8c1,1.6,2.4,2.4,4.1,2.4c1.5,0,2.7-0.5,3.6-1.5c0.9-1,1.7-2.4,2.6-4.5l0.1-0.3L595.7,205.4z M585.1,164.9
		c0,3-0.3,5.6-0.8,7.7c-0.5,2.1-1.4,3.7-2.7,4.9s-3.1,1.8-5.4,1.8h-3.1v-21.6c0-2.1,0.1-3.7,0.3-4.7s0.5-1.6,1-2s1.2-0.5,2.2-0.5
		c3,0,5.1,1.2,6.4,3.5C584.5,156.4,585.1,160.1,585.1,164.9z"/>
	<path id="V" d="M629.2,147.6c-1.1,0.2-2.4,0.3-4,0.3c-2.1,0-4.1-0.1-6.2-0.3h-0.5v2.8h0.5c1.5,0.1,2.5,0.5,3.2,1.2s1,2,1,3.8
		c0,1.7-0.4,4.2-1.1,7.2l-8.3,35.9l-9.3-41.1c-0.4-1.8-0.6-3.2-0.6-4.1c0-1,0.2-1.7,0.7-2.1c0.5-0.4,1.4-0.6,2.7-0.7h0.5v-2.8
		l-0.6,0.1c-1.5,0.2-3.8,0.3-6.9,0.3c-2.4,0-4.3-0.1-5.7-0.3l-0.6-0.1v2.8h0.5c1.3,0.1,2.5,2,3.3,5.4l13.2,56.6l0.1,0.4h1.7
		l12.8-54.9c1-4.3,2.3-6.9,4-7.5l0.3-0.1v-2.7L629.2,147.6z"/>
	<path id="E_3_" d="M659.7,211.8c-0.2-4.2-0.4-8.1-0.4-11.5c0-2.7,0.1-4.9,0.2-6.5v-0.5h-2.2v0.5c-0.3,4.2-0.7,7.4-1.2,9.6
		c-0.5,2.1-1.3,3.6-2.4,4.5c-1.1,0.9-2.7,1.4-4.8,1.4h-4c-1.2,0-2.1-0.2-2.6-0.5s-0.8-0.9-1-1.7c-0.2-1-0.3-2.6-0.3-4.8v-21.1h3.1
		c1.3,0,2.3,0.5,3,1.7c0.8,1.2,1.2,3,1.4,5.4c0.2,2.5,0.3,3.9,0.3,4.4v0.5h2.2v-0.5c-0.2-5.4-0.3-9.7-0.3-12.8v-4.3
		c0-2.7,0.1-5.5,0.2-8.5v-0.5h-2.2v0.5c-0.1,0.6-0.1,1.8-0.3,3.7c-0.1,1.8-0.5,3.6-1.1,5.4c-0.5,1.6-1.6,2.4-3.1,2.4H641v-20.7
		c0-2.2,0.1-3.8,0.3-4.8c0.2-0.9,0.5-1.4,1-1.7s1.4-0.5,2.6-0.5h4.5c1.8,0,3.1,0.4,3.9,1.2c0.9,0.8,1.5,2.1,1.9,3.9
		c0.4,1.9,0.7,4.8,1,8.6v0.5h2.2v-0.5c-0.1-1.4-0.2-3.2-0.2-5.5c0-3.1,0.1-6.7,0.4-10.6v-0.6H658c-2.2,0.2-6,0.3-11.2,0.3
		c-6.9,0-12.1-0.1-15.6-0.3h-0.5v2.8h0.5c1.2,0.1,2.1,0.3,2.6,0.6s0.8,0.9,1,1.8c0.2,1,0.3,2.6,0.3,4.8v44.6c0,2.2-0.1,3.8-0.3,4.8
		c-0.2,0.9-0.5,1.5-1,1.8s-1.4,0.5-2.6,0.6h-0.5v2.8h0.5c3.5-0.2,8.8-0.3,15.6-0.3c5.8,0,9.9,0.1,12.3,0.3h0.6V211.8z"/>
	<path id="R_2_" d="M696.5,205.4l-0.3,0.7c-0.6,1.2-1.1,2.1-1.4,2.6c-0.3,0.4-0.6,0.6-1.1,0.6c-0.2,0-0.5-0.1-0.8-0.5
		s-0.6-1.2-0.8-2.1c-0.2-1-0.5-2.5-0.7-4.3l-1.3-9.2c-0.4-2.6-0.8-4.7-1.4-6.3c-0.6-1.6-1.4-2.9-2.4-3.9c-0.8-0.8-1.9-1.4-3.2-1.8
		c1.9-0.7,3.5-1.9,4.8-3.5c1.6-1.9,2.8-4.2,3.4-6.6c0.7-2.4,1-4.9,1-7.2c0-3-0.5-5.8-1.5-8.2s-2.6-4.4-4.6-5.8
		c-2-1.4-4.5-2.1-7.4-2.1c-0.6,0-1.8,0-3.5,0.1c-5,0.2-9,0.1-11.2-0.2l-0.6-0.1v2.8h0.5c1.2,0.1,2.1,0.3,2.6,0.6s0.8,0.9,1,1.8
		c0.2,1,0.3,2.6,0.3,4.8v44.6c0,2.2-0.1,3.8-0.3,4.8c-0.2,0.9-0.5,1.5-1,1.8s-1.4,0.5-2.6,0.6h-0.5v2.8l0.6-0.1
		c1.5-0.2,3.8-0.3,6.9-0.3c2.9,0,5.2,0.1,6.8,0.3l0.6,0.1v-2.8h-0.5c-1.2-0.1-2.1-0.3-2.6-0.6s-0.8-0.9-1-1.8
		c-0.2-1-0.3-2.6-0.3-4.8V182h4.6c1.2,0,2.1,0.4,2.8,1.3c0.7,0.9,1.3,2.2,1.6,3.9c0.4,1.7,0.8,4.1,1.2,7.2l1.2,9
		c0.5,3.7,1.2,6.3,2.2,7.8c1,1.6,2.4,2.4,4.1,2.4c1.5,0,2.7-0.5,3.6-1.5c0.9-1,1.7-2.4,2.6-4.5l0.1-0.3L696.5,205.4z M685.9,164.9
		c0,3-0.3,5.6-0.8,7.7c-0.5,2.1-1.4,3.7-2.7,4.9s-3.1,1.8-5.4,1.8h-3.1v-21.6c0-2.1,0.1-3.7,0.3-4.7s0.5-1.6,1-2s1.2-0.5,2.2-0.5
		c3,0,5.1,1.2,6.4,3.5C685.2,156.4,685.9,160.1,685.9,164.9z"/>
</g>
</svg>
